<svg width="199" height="178" viewBox="0 0 199 178" fill="none" xmlns="http://www.w3.org/2000/svg">
<path d="M93.2243 0.240021C72.9184 2.14927 55.7685 9.78627 41.6084 23.1925C28.9847 35.1876 19.8906 51.3332 16.361 68.1429L15.4474 72.501L13.0389 72.75C7.84828 73.2066 2.90677 76.859 0.955082 81.6737C0 83.998 0 84.247 0 101.057C0 117.866 0 118.115 0.955082 120.44C2.24237 123.594 5.14914 126.666 8.30506 128.118C10.5474 129.156 11.2949 129.28 16.361 129.405C21.3855 129.571 22.0084 129.488 22.5067 128.824C22.922 128.243 23.0466 123.096 23.0466 103.298C23.0466 80.5945 23.1296 78.1042 23.8771 73.7876C28.1542 48.8014 44.349 27.2186 66.7727 16.5932C93.8887 3.76798 125.116 7.66949 147.996 26.762C160.828 37.4289 169.922 52.5784 174.074 69.9691L175.237 74.9083L175.444 101.804C175.611 125.088 175.735 128.741 176.275 129.114C176.649 129.363 179.14 129.488 182.338 129.405C187.487 129.28 187.902 129.197 190.518 127.911C193.549 126.417 195.958 123.968 197.536 120.855L198.491 118.904V100.849V82.7943L197.079 80.1795C194.671 75.7384 190.726 73.1236 185.95 72.7085C183.874 72.5425 183.334 72.3765 183.334 71.8369C183.334 70.7162 180.967 61.4605 179.763 57.8911C177.064 49.7975 172.289 40.8323 166.641 33.3198C156.758 20.1211 142.39 9.70326 126.984 4.55659C116.479 1.07013 103.024 -0.673096 93.2243 0.240021Z" fill="#1A2334"/>
<path d="M90.0684 31.3692C60.3363 35.3953 36.4177 56.1895 28.694 84.7037C23.8771 102.468 25.8287 120.855 34.2584 137.623C43.0202 155.055 57.8863 168.088 75.9083 174.106C102.983 183.155 131.718 176.182 151.36 155.803C164.897 141.732 171.749 125.711 172.413 106.411C173.41 77.5648 158.834 52.0389 133.878 39.0477C120.756 32.1993 104.644 29.377 90.0684 31.3692ZM83.0506 70.7994C85.7498 72.3766 118.015 91.5936 130.389 98.9816C133.711 100.974 135.165 102.759 135.165 105C135.165 107.49 133.795 108.984 128.521 112.056C125.905 113.55 114.485 120.232 103.19 126.873C91.8955 133.514 82.054 139.242 81.3066 139.615C78.3167 141.11 74.6625 139.906 73.2091 136.959C72.5862 135.631 72.5032 132.476 72.3786 104.087C72.254 72.9162 72.254 72.6671 73.1261 71.505C73.5828 70.8824 74.621 70.0108 75.41 69.6372C77.7354 68.4336 79.3964 68.6826 83.0506 70.7994Z" fill="#5C3C9F"/>
</svg>
