<svg width="459" height="178" viewBox="0 0 459 178" fill="none" xmlns="http://www.w3.org/2000/svg">
<path d="M93.2243 0.240023C72.9185 2.14927 55.7685 9.78627 41.6084 23.1925C28.9847 35.1876 19.8906 51.3332 16.361 68.1429L15.4474 72.501L13.0389 72.75C7.84828 73.2066 2.90677 76.859 0.955082 81.6737C0 83.998 0 84.247 0 101.057C0 117.866 0 118.115 0.955082 120.44C2.24237 123.594 5.14914 126.666 8.30506 128.118C10.5474 129.156 11.2949 129.28 16.361 129.405C21.3855 129.571 22.0084 129.488 22.5067 128.824C22.922 128.243 23.0466 123.096 23.0466 103.298C23.0466 80.5945 23.1296 78.1042 23.8771 73.7876C28.1542 48.8014 44.349 27.2185 66.7727 16.5932C93.8887 3.76798 125.116 7.66949 147.996 26.762C160.828 37.4289 169.922 52.5784 174.074 69.9691L175.237 74.9083L175.444 101.804C175.611 125.088 175.735 128.741 176.275 129.114C176.649 129.363 179.14 129.488 182.338 129.405C187.487 129.28 187.902 129.197 190.518 127.911C193.549 126.417 195.958 123.968 197.536 120.855L198.491 118.904V100.849V82.7943L197.079 80.1795C194.671 75.7384 190.726 73.1236 185.95 72.7085C183.874 72.5425 183.334 72.3765 183.334 71.8369C183.334 70.7162 180.967 61.4605 179.763 57.8911C177.064 49.7975 172.289 40.8323 166.641 33.3198C156.758 20.1211 142.39 9.70326 126.984 4.55659C116.479 1.07013 103.024 -0.673097 93.2243 0.240023Z" fill="#6F88B7"/>
<path d="M90.0684 31.3692C60.3363 35.3953 36.4177 56.1895 28.694 84.7037C23.8771 102.468 25.8287 120.855 34.2584 137.623C43.0202 155.055 57.8863 168.088 75.9083 174.106C102.983 183.155 131.718 176.182 151.36 155.803C164.897 141.732 171.749 125.711 172.413 106.411C173.41 77.5648 158.834 52.0389 133.878 39.0477C120.756 32.1993 104.644 29.377 90.0684 31.3692ZM83.0506 70.7994C85.7498 72.3766 118.015 91.5936 130.389 98.9816C133.711 100.974 135.165 102.759 135.165 105C135.165 107.49 133.795 108.984 128.521 112.056C125.905 113.55 114.485 120.232 103.19 126.873C91.8955 133.514 82.054 139.242 81.3066 139.615C78.3167 141.11 74.6625 139.906 73.2091 136.959C72.5862 135.631 72.5032 132.476 72.3786 104.087C72.254 72.9162 72.254 72.6671 73.1261 71.505C73.5828 70.8824 74.621 70.0108 75.41 69.6372C77.7354 68.4336 79.3964 68.6826 83.0506 70.7994Z" fill="#AB95D7"/>
<path d="M404.228 65.4033C399.287 67.8106 399.287 75.3231 404.27 77.5643C406.471 78.5605 408.049 78.602 410.208 77.6059C415.066 75.4061 415.149 67.9766 410.332 65.5278C408.422 64.5316 406.097 64.4901 404.228 65.4033Z" fill="#6F88B7"/>
<path d="M217.696 94.7895V124.051H234.929H252.162V118.448V112.844H240.951H229.739V89.1862V65.5281H223.718H217.696V94.7895Z" fill="#6F88B7"/>
<path d="M440.148 81.3417C437.988 81.8398 436.286 82.7529 433.545 84.9112L431.137 86.7374V84.4546V82.1303H425.531H419.925L420.008 102.966L420.132 123.843L425.863 123.968L431.552 124.092V111.101C431.593 97.5288 431.759 96.0346 433.503 94.0839C435.663 91.635 441.393 90.8464 444.009 92.6312C444.798 93.1292 445.795 94.2084 446.252 94.997C447.082 96.3667 447.124 97.1968 447.248 110.229L447.373 124.051H453.186H459L458.875 108.154C458.751 93.0877 458.709 92.1746 457.837 90.1408C455.055 83.2924 447.581 79.5985 440.148 81.3417Z" fill="#6F88B7"/>
<path d="M271.389 81.8811C263.706 83.7488 257.685 89.7256 255.692 97.3626C254.862 100.476 254.903 106.037 255.734 109.275C257.685 116.787 263.582 122.722 271.056 124.673C274.295 125.503 280.067 125.462 282.933 124.632C290.117 122.473 295.473 117.617 297.923 110.935C298.671 108.901 298.795 107.573 298.837 103.298C298.837 97.4871 298.173 95.0798 295.473 90.9708C290.532 83.4998 280.483 79.6813 271.389 81.8811ZM281.687 92.797C286.67 95.3288 288.829 102.634 286.379 108.528C284.095 114.006 277.368 116.289 272.095 113.425C268.067 111.225 266.447 107.78 266.779 102.177C266.987 98.5247 267.901 96.408 270.101 94.2912C273.133 91.3858 277.701 90.8047 281.687 92.797Z" fill="#6F88B7"/>
<path d="M319.143 81.9227C313.329 83.4999 307.848 87.858 305.398 92.9217C300.996 101.928 302.491 112.222 309.218 118.863C313.62 123.221 318.769 125.296 325.247 125.296C339.283 125.296 349.539 112.803 346.674 99.1475C344.847 90.5143 338.784 84.1225 330.313 81.9227C327.406 81.1341 322.008 81.1756 319.143 81.9227ZM328.195 92.0916C330.147 92.6311 332.929 95.0799 334.092 97.2382C334.881 98.6909 335.005 99.604 335.005 103.34C335.005 107.49 334.922 107.822 333.76 109.731C331.227 113.84 326.659 115.625 322.174 114.338C317.939 113.093 315.281 109.731 314.658 104.917C313.578 96.2006 320.264 89.8918 328.195 92.0916Z" fill="#6F88B7"/>
<path d="M370.759 82.2962C369.43 82.8773 367.437 84.0809 366.357 84.994C365.236 85.9487 364.239 86.6958 364.115 86.6958C363.99 86.6958 363.866 85.6996 363.783 84.496L363.658 82.3377L357.927 82.2132L352.238 82.0887L352.322 111.475L352.446 140.86H358.052H363.658L363.783 130.152L363.866 119.485L366.523 121.519C370.344 124.424 372.337 125.088 377.361 125.088C381.265 125.088 381.721 125.005 384.421 123.677C393.432 119.236 398.165 107.947 395.425 97.3212C393.764 90.7218 389.736 85.5336 384.338 82.9188C381.846 81.7151 381.057 81.5491 377.361 81.4246C373.707 81.3001 372.918 81.3831 370.759 82.2962ZM378.649 92.6725C382.469 94.4573 384.213 97.8607 384.213 103.464C384.213 110.561 380.517 114.504 373.956 114.504C370.468 114.504 368.267 113.55 366.274 111.225C361.416 105.539 363.035 95.6609 369.347 92.548C371.88 91.3029 375.825 91.3444 378.649 92.6725Z" fill="#6F88B7"/>
<path d="M401.321 102.966L401.446 123.843L407.176 123.968L412.865 124.092V103.091V82.1303H407.052H401.238L401.321 102.966Z" fill="#6F88B7"/>
</svg>
