<svg xmlns="http://www.w3.org/2000/svg" id="shuffle" x="0" y="0" version="1.1" viewBox="0 0 29 29" xml:space="preserve"><path d="M6.843 20H2.5a1 1 0 0 1 0-2h4.343c.79 0 1.563-.32 2.121-.878l6.657-6.657A4.967 4.967 0 0 1 19.157 9H23.5a1 1 0 0 1 0 2h-4.343c-.79 0-1.563.32-2.121.878l-6.657 6.657A4.967 4.967 0 0 1 6.843 20z"></path><path d="M23.5 20h-4.343a4.967 4.967 0 0 1-3.535-1.464l-6.657-6.657A3.02 3.02 0 0 0 6.843 11H2.5a1 1 0 0 1 0-2h4.343c1.335 0 2.591.52 3.535 1.464l6.657 6.657a3.02 3.02 0 0 0 2.122.879H23.5a1 1 0 0 1 0 2zM21.5 12.412V7.588c0-.368.401-.596.717-.408l4.052 2.412a.474.474 0 0 1 0 .815l-4.052 2.412a.474.474 0 0 1-.717-.407z"></path><path d="M21.5 21.412v-4.823c0-.368.401-.596.717-.408l4.052 2.412a.474.474 0 0 1 0 .815l-4.052 2.412a.475.475 0 0 1-.717-.408z"></path></svg>